<svg id="Capa_1" enable-background="new 0 0 511.996 511.996" height="512" viewBox="0 0 511.996 511.996" width="512" xmlns="http://www.w3.org/2000/svg"><g><path d="m255.279 323.704c4.143 0 7.5-3.358 7.5-7.5v-6.797c18.281-2.924 29.42-16.017 31.225-28.927 2.056-14.707-7.421-27.355-24.144-32.223-10.979-3.196-23.158-7.082-30.256-11.666-3.903-2.521-3.675-6.69-3.396-8.366.694-4.165 4.079-9.27 11.497-11.11 2.673-.663 5.18-1.004 7.51-1.119.021 0 .042.003.063.003.26 0 .516-.013.769-.039 10.912-.294 17.648 4.425 18.088 4.743 3.296 2.462 7.966 1.807 10.458-1.474 2.505-3.299 1.862-8.003-1.437-10.509-.447-.34-8.032-5.962-20.379-7.419v-5.507c0-4.142-3.357-7.5-7.5-7.5s-7.5 3.358-7.5 7.5v5.986c-1.206.214-2.432.466-3.685.777-11.922 2.958-20.825 12.065-22.682 23.203-1.572 9.433 2.279 18.411 10.053 23.432 7.028 4.541 16.937 8.442 34.201 13.469 9.576 2.788 14.49 8.526 13.481 15.744-1.146 8.197-9.728 16.536-23.911 16.614-11.787.071-16.438-.368-26.455-5.765-3.649-1.966-8.196-.602-10.16 3.045-1.965 3.646-.602 8.195 3.045 10.16 10.271 5.533 16.978 7.092 26.112 7.46v6.287c.003 4.14 3.36 7.498 7.503 7.498z"/><path d="m505.77 314.144c-.021-4.006-3.186-7.289-7.188-7.455l-58.214-2.422-44.635-5.736c-19.655-2.525-39.683-1.79-59.1 2.064 1.626-2.937 3.111-5.956 4.415-9.073 1.599-3.821-.203-8.215-4.024-9.813-3.824-1.598-8.215.203-9.813 4.024-3.175 7.591-7.524 14.562-12.91 20.768-1.867.624-3.725 1.272-5.571 1.957l-5.927 2.197c-8.417 3.12-14.704 9.36-18.024 16.928-9.147 3.68-18.808 5.562-28.777 5.562-42.539 0-77.147-34.608-77.147-77.147 0-18.647 6.697-36.503 18.865-50.515 1.859-.621 3.712-1.261 5.55-1.943l5.928-2.199c8.409-3.117 14.693-9.351 18.014-16.914 9.149-3.691 18.814-5.579 28.789-5.579 42.541 0 77.15 34.609 77.15 77.15 0 1.314-.03 2.57-.091 3.733-.214 4.137 2.967 7.664 7.104 7.877.132.006.263.01.393.01 3.965 0 7.277-3.108 7.484-7.113.073-1.42.11-2.936.11-4.507 0-50.812-41.339-92.15-92.15-92.15-9.043 0-17.879 1.288-26.396 3.838-.268-2.054-.742-4.115-1.431-6.159-1.968-5.797-5.536-10.869-10.34-14.68-4.81-3.791-10.565-6.099-16.644-6.676l-29.502-2.8 11.287-8.606 69.625-.113c.161.002.319.004.479.004 13.307 0 25.042-8.407 29.617-20.496l.744-.001c14.862.247 27.772-9.93 31.234-24.082 9.844-4.279 17.205-13.423 18.771-24.638.202-1.427.305-2.912.305-4.413 0-13.827-8.849-25.941-22.018-30.145l-71.568-22.857c-9.7-3.104-20.211-2.626-29.6 1.346l-69.16 29.28c-3.814 1.615-5.598 6.017-3.982 9.831 1.615 3.816 6.02 5.598 9.83 3.983l69.158-29.28c6.087-2.575 12.897-2.885 19.186-.873l71.572 22.86c6.927 2.21 11.58 8.582 11.58 15.855 0 .811-.051 1.566-.158 2.323-1.149 8.231-8.211 14.351-16.495 14.351-.101 0-.202-.001-.303-.003l-64.54-1.15c-1.686-.024-3.338.511-4.682 1.535l-85.22 64.98c-2.455 1.872-3.512 5.057-2.663 8.025.849 2.969 3.429 5.114 6.502 5.405l48.58 4.61c3.202.304 6.236 1.522 8.757 3.509 2.521 1.999 4.401 4.674 5.437 7.723 2.9 8.592-1.483 17.79-9.983 20.939l-5.928 2.199c-25.397 9.413-53.019 12.563-79.878 9.114l-38.44-4.943-.282-53.833-.333-64.499 40.563-17.169c3.814-1.615 5.598-6.016 3.983-9.83-1.615-3.815-6.02-5.596-9.831-3.983l-43.608 18.46-56.86-2.365c-2.057-.088-4.043.672-5.518 2.095-1.476 1.423-2.305 3.388-2.294 5.438l.671 129.895c.021 4.006 3.186 7.289 7.188 7.455l58.225 2.423 44.622 5.738c7.698.989 15.453 1.48 23.207 1.48 12.035 0 24.065-1.188 35.869-3.53-7.487 13.528-11.487 28.821-11.487 44.581 0 50.81 41.337 92.147 92.147 92.147 9.04 0 17.876-1.285 26.392-3.831.269 2.048.741 4.104 1.429 6.141 3.99 11.807 14.586 20.196 26.992 21.372l29.495 2.795-11.288 8.608-69.622.113c-13.542-.219-25.477 8.255-30.099 20.492l-.742.001c-.169-.003-.338-.004-.507-.004-14.656 0-27.296 10.089-30.723 24.069-9.861 4.276-17.213 13.433-18.782 24.67-2.14 15.311 6.996 29.838 21.723 34.542l71.568 22.862c4.225 1.349 8.601 2.02 12.971 2.02 5.669 0 11.328-1.129 16.625-3.372l140.343-59.418 56.854 2.365c.104.004.208.006.312.006 1.938 0 3.806-.75 5.206-2.101 1.476-1.423 2.305-3.388 2.294-5.438zm-252.986-200.49c-.048-.001-.099-.007-.144-.001l-49.955.081 7.157-5.457 55.527-.088c-3.143 3.434-7.673 5.547-12.585 5.465zm-13.192-28.061 57.543 1.026c-3.133 4.064-8.074 6.616-13.501 6.542-.05-.001-.102-.001-.149-.001l-53.928.085zm-218.404 105.024-.594-114.879 43.531 1.81.372 71.001.227 43.878zm237.731 207.721c.098 0 .195.001.293.003.048 0 .093-.002.144.001l49.954-.081-7.156 5.457-55.538.088c3.077-3.369 7.489-5.468 12.303-5.468zm-30.866 20.493c.103 0 .206.001.309.002.05.001.098-.001.149.001l53.932-.085-10.038 7.655-57.558-1.032c3.068-3.999 7.88-6.541 13.206-6.541zm67.532 75.979c-6.081 2.575-12.894 2.886-19.184.876l-71.568-22.862c-7.75-2.475-12.558-10.12-11.432-18.178 1.15-8.234 8.214-14.356 16.499-14.356.101 0 .201.001.302.003l64.542 1.157c1.666.018 3.339-.511 4.683-1.535l85.216-64.987c2.455-1.873 3.512-5.058 2.663-8.026s-3.43-5.113-6.503-5.404l-48.574-4.604c-6.525-.618-12.099-5.031-14.197-11.241-2.901-8.587 1.483-17.783 9.982-20.934l5.927-2.197c25.396-9.413 53.019-12.563 79.88-9.112l38.446 4.94.611 118.335zm152.281-60.364-.593-114.879 43.535 1.811.594 114.878z"/></g></svg>